<svg width="365" height="601" xmlns="http://www.w3.org/2000/svg" xmlns:xlink="http://www.w3.org/1999/xlink" xml:space="preserve" overflow="hidden"><g transform="translate(-1358 -790)"><path d="M1611.48 875.977C1605.29 855.846 1616.59 834.51 1636.72 828.32 1656.85 822.131 1678.19 833.432 1684.38 853.563 1690.57 873.693 1679.27 895.03 1659.13 901.219 1639 907.408 1617.67 896.107 1611.48 875.977Z" fill-rule="evenodd"/><path d="M1586.59 883.627C1576.18 849.754 1595.2 813.851 1629.07 803.437 1662.94 793.022 1698.85 812.039 1709.26 845.912 1719.68 879.785 1700.66 915.688 1666.79 926.103 1632.91 936.518 1597.01 917.501 1586.59 883.627Z" stroke="#000000" stroke-width="20.625" stroke-miterlimit="8" fill="none" fill-rule="evenodd"/><path d="M1647.3 861.029C1621.92 983.816 1581.55 1166.05 1552.96 1240.38 1526.91 1307.73 1473.29 1318.52 1433.82 1340.24" stroke="#000000" stroke-width="20.625" stroke-miterlimit="8" fill="none" fill-rule="evenodd"/><path d="M1359.02 1354.19C1357.11 1349.91 1359.04 1344.89 1363.32 1342.98L1438.03 1309.76C1442.31 1307.85 1447.33 1309.78 1449.24 1314.07L1463.04 1345.1C1464.94 1349.38 1463.02 1354.4 1458.73 1356.31L1384.03 1389.53C1379.74 1391.44 1374.72 1389.51 1372.82 1385.22Z" fill-rule="evenodd"/></g></svg>